<?xml version="1.0" encoding="utf-8"?>
<svg id="master-artboard" viewBox="0 0 1400 980" xmlns="http://www.w3.org/2000/svg" width="1400px" height="980px" version="1.1" style="shape-rendering:geometricPrecision; text-rendering:geometricPrecision; image-rendering:optimizeQuality; fill-rule:evenodd; clip-rule:evenodd"><rect id="ee-background" x="0" y="0" width="1400" height="980" style="fill: white; fill-opacity: 0; pointer-events: none;"/>
 
 <metadata id="CorelCorpID_0Corel-Layer"/>
<g transform="matrix(4.8999949035691195, 0, 0, 4.8999949035691195, -1117.8981702592996, -1391.5981482561085)"><g id="g-1" transform="matrix(1, 0, 0, 1, 0, 0)">
	<g id="g-2">
		<path class="st0" d="M413.7,388.2l7.3-4.2l-7.3-4.2l6.3-5.6l-8-2.7l5.1-6.7l-8.3-1.1l3.7-7.5l-8.4,0.5l2.2-8.1l-8.1,2.2l0.6-8.4&#10;&#9;&#9;&#9;l-7.6,3.7l-1.1-8.3l-6.6,5.1l-2.7-8l-5.6,6.4L371,334l-4.2,7.3l-5.6-6.3l-2.7,8l-6.7-5.2l-1.1,8.3l-7.5-3.7l0.5,8.4l-8.1-2.2&#10;&#9;&#9;&#9;l2.2,8.1l-8.4-0.5l3.7,7.5l-8.3,1.1l5.1,6.7l-8,2.7l6.3,5.5L321,384l7.3,4.2l-6.3,5.6l8,2.7l-5.2,6.7l8.3,1.1l-3.7,7.6l8.4-0.6&#10;&#9;&#9;&#9;l-2.2,8.1l8.1-2.2l-0.5,8.4l7.5-3.7l1.1,8.3l6.7-5.1l2.7,8l5.5-6.3l4.2,7.2l4.2-7.3l5.6,6.3l2.7-8l6.7,5.1l1.1-8.3l7.6,3.7&#10;&#9;&#9;&#9;l-0.6-8.4l8.1,2.2l-2.2-8.1l8.4,0.6l-3.7-7.6l8.3-1.1l-5.1-6.7l8-2.7L413.7,388.2z" style="fill: rgb(51, 51, 51);"/>
	</g>
</g></g><g transform="matrix(5.028708457946777, 0, 0, 5.028708457946777, -2588.7753379591136, -3688.8567872021513)"><g id="g-3" transform="matrix(1, 0, 0, 1, 0, 0)">
	<g id="g-4">
		<g>
			<path class="st0" d="M654,884c-29.2,0-53-23.8-53-53s23.8-53,53-53s53,23.8,53,53S683.2,884,654,884z M654,784&#10;&#9;&#9;&#9;&#9;c-25.9,0-47,21.1-47,47s21.1,47,47,47s47-21.1,47-47S679.9,784,654,784z" style="fill: rgb(51, 51, 51);"/>
		</g>
	</g>
</g></g><g transform="matrix(0.7745847702026366, 0, 0, 0.7745847702026366, 387.9643368345238, 207.44826433580846)"><g transform="matrix(1, 0, 0, 1, 0, 0)"><path class="st31" d="M290.1,58.6c-29-7.4-53.1,24.6-53.1,24.6c3.7-31.5,33.5-37.7,33.5-37.7l-3.2-5.5l6.4,4&#10;&#9;&#9;&#9;&#9;&#9;&#9;c7.9-0.7,19.6,4.2,19.6,4.2c-6.1-13.3-16.2-17.5-24.8-18.4c-10.2-1.1-20.3,2.5-28.1,9.1c-19.7,16.8-15.4,43-15.4,43&#10;&#9;&#9;&#9;&#9;&#9;&#9;c-9-10.5-19-15.8-28-18.3c-25.6-7.1-52,9-56.6,35.2c-0.6,3.3-0.6,5.4-0.6,5.4c9.1-13.2,24.5-17,24.5-17l4.3-8.6v7.1&#10;&#9;&#9;&#9;&#9;&#9;&#9;c13.1-3.3,22.3-2.3,22.3-2.3l10.9-6.9l-4.5,6.9c13.2-0.5,20.7,9.2,20.7,9.2c-12.9-6.7-34.2-1.5-34.2-1.5&#10;&#9;&#9;&#9;&#9;&#9;&#9;c-23.3,6-29.5,24.6-29.5,24.6c-10.4,28,4.5,43.7,4.5,43.7c-0.2-10.6,3.3-19.5,3.3-19.5l1.2-15.4l1,8.6&#10;&#9;&#9;&#9;&#9;&#9;&#9;c6.3-14.9,17.5-19.8,17.5-19.8c0.7-3.3,3.6-12.2,3.6-12.2l0.3,10.4c22.7-10.4,35.5-6.1,35.5-6.1c-9.3,2.4-18,7.1-25,13.6&#10;&#9;&#9;&#9;&#9;&#9;&#9;c-10.8,10-17,24-15.8,38.9c0.1,0.9,0.2,1.9,0.3,2.8c1.1,7.7,4,15.2,8.7,21.4c4.9,6.3,12,11.7,20,13.1c0,0,3.3,1,9.2,0&#10;&#9;&#9;&#9;&#9;&#9;&#9;c0,0-4.1-2.7-6.6-5.2c-14.3-14.5-11.8-25.4-11.8-25.4c1.2,4,8.2,6.2,8.2,6.2c-7.4-11.7-6.4-36.7-6.4-36.7l4.3,6.5&#10;&#9;&#9;&#9;&#9;&#9;&#9;c2-23.5,22.8-30.1,22.8-30.1l8.6-2.3c35.9-6.3,41.8,16,41.8,16l5.7-4.8l-3.1,7.1c6.3,3.6,7.7,17.2,7.7,17.2&#10;&#9;&#9;&#9;&#9;&#9;&#9;c2-0.9,5.6-4.1,5.6-4.1c-0.7,4-3.3,7.7-3.3,7.7c1.5,6.7-0.5,14.9-0.5,14.9c31.7-28.3,2.2-56.6,2.2-56.6&#10;&#9;&#9;&#9;&#9;&#9;&#9;c-21.3-21.6-53.3-6.9-53.3-6.9c11.9-16.1,31.5-17.6,31.5-17.6l4-7.7l1.2,6.9c13.4,0,19.3,6.7,19.3,6.7l4.5-7.9l0.2,10.5&#10;&#9;&#9;&#9;&#9;&#9;&#9;c5,7,7.2,21.8,7.2,21.8l3-6.7C322.9,65.3,290.1,58.6,290.1,58.6z" style="fill: rgb(72, 154, 42);" transform="matrix(1.9253498315811157, 0, 0, 1.9253498315811157, -96.04266357421875, 89.23016357421875)"/><path class="st32" d="M 230.9 109.8 C 230.9 109.8 272.1 165.7 250.20000000000002 236.2 C 248.50000000000003 241.6 252.63538818359376 242.62615661621092 257.83538818359375 244.82615661621094 C 257.83538818359375 244.82615661621094 270.4 248 271.4 241 C 275.09999999999997 215.4 277.5 157.8 238.09999999999997 107.80000000000001 L 230.9 109.8 Z" style="fill: rgb(214, 183, 111);" transform="matrix(1.9253498315811157, 0, 0, 1.9253498315811157, -96.04266357421875, 89.23016357421875)"/><path class="st15" d="M829.1,307.2c50-35.6,119.4-46.7,179-47.1c59.2-0.4,129.4,11.8,179,47.1c12.4,8.8,24.1-11.6,11.9-20.3&#10;&#9;&#9;&#9;&#9;c-53.2-37.9-127.4-49.9-190.9-50.3c-63-0.5-138.1,12.8-190.9,50.3C805,295.6,816.7,316,829.1,307.2L829.1,307.2z" style="fill: rgb(214, 183, 111); opacity: 1;" transform="matrix(0.8528741598129272, 0, 0, 0.8528741598129272, -458.1435546875, 343.4210205078125)"/><path d="M 361.26580810546875 303.5707092285156 C 429.39947509765625 406.41400146484375 412.68743896484375 538.8247680664062 412.68743896484375 538.8247680664062 L 393.40435791015625 549.1090698242188 L 419.11517333984375 546.5380249023438 C 419.11517333984375 546.5380249023438 442.2549133300781 405.1284484863281 361.26580810546875 303.5707092285156 Z" style="fill-opacity: 1; stroke: rgb(0, 0, 0); stroke-opacity: 1; stroke-width: 0; paint-order: fill; fill: rgb(143, 122, 74);" transform="matrix(1, 0, 0, 1, 0, 0)"/><path d="M 347.1248474121094 279.14544677734375 C 347.1248474121094 279.14544677734375 334.2694396972656 207.15512084960938 363.8368835449219 175.0166015625 C 393.4043273925781 142.87808227539062 420.40069580078125 151.87686157226562 420.40069580078125 151.87686157226562 C 420.40069580078125 151.87686157226562 338.1260681152344 166.017822265625 347.1248474121094 279.14544677734375 Z" style="fill: rgb(49, 105, 29); fill-opacity: 1; stroke: rgb(0, 0, 0); stroke-opacity: 1; stroke-width: 0; paint-order: fill;" transform="matrix(1, 0, 0, 1, 0, 0)"/><path d="M 366.407958984375 253.4346160888672 C 366.407958984375 253.4346160888672 402.4031066894531 203.2985076904297 453.82476806640625 208.440673828125 C 505.2464294433594 213.5828399658203 502.6753234863281 262.43341064453125 502.6753234863281 262.43341064453125 C 502.6753234863281 262.43341064453125 475.6789855957031 166.017822265625 366.407958984375 253.4346160888672 Z" style="fill: rgb(49, 105, 29); fill-opacity: 1; stroke: rgb(0, 0, 0); stroke-opacity: 1; stroke-width: 0; paint-order: fill;" transform="matrix(1, 0, 0, 1, 0, 0)"/><path d="M 198.0020751953125 243.15028381347656 C 264.8502197265625 196.87081909179688 330.4128112792969 249.57798767089844 330.4128112792969 249.57798767089844 C 330.4128112792969 249.57798767089844 268.70684814453125 182.7298583984375 198.0020751953125 243.15028381347656 Z" style="fill: rgb(49, 105, 29); fill-opacity: 1; stroke: rgb(0, 0, 0); stroke-opacity: 1; stroke-width: 0; paint-order: fill;" transform="matrix(1, 0, 0, 1, 0, 0)"/><path d="M 330.4128112792969 275.288818359375 C 330.4128112792969 275.288818359375 280.2767333984375 256.0057373046875 236.5683135986328 283.0020751953125 C 192.85989379882812 309.9984130859375 203.1442413330078 357.5634460449219 203.1442413330078 357.5634460449219 C 203.1442413330078 357.5634460449219 201.85873413085938 262.4333801269531 330.4128112792969 275.288818359375 Z" style="fill: rgb(49, 105, 29); fill-opacity: 1; stroke: rgb(0, 0, 0); stroke-opacity: 1; stroke-width: 0; paint-order: fill;" transform="matrix(1, 0, 0, 1, 0, 0)"/><path d="M 336.84051513671875 295.85748291015625 C 336.84051513671875 295.85748291015625 275.134521484375 306.1418151855469 257.136962890625 367.8477783203125 C 239.139404296875 429.5537414550781 303.41644287109375 459.1212158203125 303.41644287109375 459.1212158203125 C 303.41644287109375 459.1212158203125 253.28036499023438 424.41162109375 266.1357727050781 369.1333312988281 C 278.9911804199219 313.85504150390625 336.84051513671875 295.85748291015625 336.84051513671875 295.85748291015625 Z" style="fill: rgb(49, 105, 29); fill-opacity: 1; stroke: rgb(0, 0, 0); stroke-opacity: 1; stroke-width: 0; paint-order: fill;" transform="matrix(1, 0, 0, 1, 0, 0)"/><g transform="matrix(1, 0, 0, 1, -440.94061279296875, 5.142164707183895)"><path class="st7" d="M 96.5 69.8 C 96 71.7 94.1 72.89999999999999 92.2 72.5 C 90.3 72.1 89.10000000000001 70.1 89.5 68.2 C 89.9 66.3 91.9 65.10000000000001 93.8 65.5 C 95.8 66 96.9 67.9 96.5 69.8 Z" style="fill: rgb(3, 5, 3);" transform="matrix(5.431353569030762, 0.7823139429092407, -0.7823139429092407, 5.431353569030762, 352.5978088378906, -153.013916015625)"/><path class="st7" d="M 93.6 66.4 C 93.19999999999999 68.30000000000001 91.19999999999999 69.5 89.3 69.10000000000001 C 87.39999999999999 68.60000000000001 86.2 66.7 86.6 64.80000000000001 C 87.1 62.90000000000001 89 61.70000000000001 90.89999999999999 62.10000000000001 C 92.9 62.5 94.1 64.4 93.6 66.4 Z" style="fill: rgb(139, 157, 35);" transform="matrix(5.431353569030762, 0.7823139429092407, -0.7823139429092407, 5.431353569030762, 352.5978088378906, -153.013916015625)"/><path class="st20" d="M 207.2 453 C 207.2 503.7 176.39999999999998 523.4 140.29999999999998 523.4 C 104.19999999999999 523.4 73.39999999999998 503.7 73.39999999999998 453 C 73.39999999999998 402.3 104.19999999999997 382.6 140.29999999999998 382.6 C 176.5 382.7 207.2 402.3 207.2 453 Z" style="fill: rgb(181, 204, 45);" transform="matrix(0.30646049976348877, 0.04414154589176178, -0.04414154589176178, 0.30646049976348877, 780.5728149414061, 148.0100555419922)"/><path class="st20" d="M 207.2 453 C 207.2 503.7 176.39999999999998 523.4 140.29999999999998 523.4 C 104.19999999999999 523.4 104.19999999999997 382.6 140.29999999999998 382.6 C 176.5 382.7 207.2 402.3 207.2 453 Z" style="fill: rgb(190, 215, 47);" transform="matrix(0.30646049976348877, 0.04414154589176178, -0.04414154589176178, 0.30646049976348877, 780.5728149414061, 148.0100555419922)"/><path class="st30" d="M 252.7 522.9 C 256.4 514.9 259.9 502.5 254.79999999999998 489.7 C 256.2 504.4 251.39999999999998 516.4 241.7 527.7 C 232.39999999999998 530.6 222.7 531.3000000000001 213.6 530.6 C 191.5 511.1 194.7 476.90000000000003 194.7 476.90000000000003 C 187.6 491.90000000000003 192.1 516.2 202.2 529 C 173 522.9 154.7 492.8 152 467.8 C 152 468.3 152 468.8 152 469.3 C 152 520 182.8 539.7 218.9 539.7 C 255 539.7 285.8 520 285.8 469.30000000000007 C 280.2 498.1 267.6 514.4 252.7 522.9 Z" style="opacity: 0.07; fill: rgb(72, 51, 27);" transform="matrix(0.2840142250061035, 0.040908463299274445, -0.04414154589176178, 0.30646049976348877, 762.3193359374999, 139.94944763183594)"/><path class="st20" d="M 139.8912353515625 469.1540832519531 C 103.41162109375 488.8658752441406 176.39999999999998 523.4 140.29999999999998 523.4 C 104.19999999999999 523.4 73.39999999999998 503.7 73.39999999999998 453 C 73.39999999999998 402.3 104.19999999999997 382.6 140.29999999999998 382.6 C 153.42825317382812 382.6362609863281 165.83314514160156 385.2372131347656 176.31268310546875 390.95611572265625 C 194.72955322265625 401.0065612792969 169.41281282871955 453.20207261943 139.8912353515625 469.1540832519531 Z" style="fill: rgb(154, 174, 38); fill-opacity: 0.41;" transform="matrix(0.30646049976348877, 0.04414154589176178, -0.04414154589176178, 0.30646049976348877, 780.5728149414061, 148.0100555419922)"/><g transform="matrix(0.2591020166873932, 0.03732019662857056, -0.03732019662857056, 0.2591020166873932, 772.2440185546874, 151.7840118408203)"><path class="st20" d="M 207.2 453 C 207.2 503.7 176.39999999999998 523.4 140.29999999999998 523.4 C 104.19999999999999 523.4 73.39999999999998 503.7 73.39999999999998 453 C 73.39999999999998 402.3 104.19999999999997 382.6 140.29999999999998 382.6 C 176.5 382.7 207.2 402.3 207.2 453 Z" style="fill: rgb(181, 204, 45);" transform="matrix(1, 0, 0, 1, 3.637978807091713e-12, 9.094947017729282e-13)"/><path class="st20" d="M 207.2 453 C 207.2 503.7 176.39999999999998 523.4 140.29999999999998 523.4 C 104.19999999999999 523.4 104.19999999999997 382.6 140.29999999999998 382.6 C 176.5 382.7 207.2 402.3 207.2 453 Z" style="fill: rgb(190, 215, 47);" transform="matrix(1, 0, 0, 1, 5.382696599554038e-7, -0.000008178805728675798)"/><path class="st30" d="M 252.7 522.9 C 256.4 514.9 259.9 502.5 254.79999999999998 489.7 C 256.2 504.4 251.39999999999998 516.4 241.7 527.7 C 232.39999999999998 530.6 222.7 531.3000000000001 213.6 530.6 C 191.5 511.1 194.7 476.90000000000003 194.7 476.90000000000003 C 187.6 491.90000000000003 192.1 516.2 202.2 529 C 173 522.9 154.7 492.8 152 467.8 C 152 468.3 152 468.8 152 469.3 C 152 520 182.8 539.7 218.9 539.7 C 255 539.7 285.8 520 285.8 469.30000000000007 C 280.2 498.1 267.6 514.4 252.7 522.9 Z" style="opacity: 0.07; fill: rgb(72, 51, 27);" transform="matrix(0.9267565011978149, 0, 0, 1, -62.062973022460994, -17.362974166870117)"/></g></g><path d="M 487.24884033203125 344.7080383300781 C 462.82354736328125 270.14666748046875 394.68988037109375 279.14544677734375 394.68988037109375 279.14544677734375 C 394.68988037109375 279.14544677734375 474.3934326171875 258.5767822265625 487.24884033203125 344.7080383300781 Z" style="fill: rgb(49, 105, 29); fill-opacity: 1; stroke: rgb(0, 0, 0); stroke-opacity: 1; stroke-width: 0; paint-order: fill;" transform="matrix(1, 0, 0, 1, 0, 0)"/></g></g></svg>